<?xml version="1.0" standalone="no"?>
<!DOCTYPE svg PUBLIC "-//W3C//DTD SVG 20010904//EN"
 "http://www.w3.org/TR/2001/REC-SVG-20010904/DTD/svg10.dtd">
<svg version="1.0" xmlns="http://www.w3.org/2000/svg"
 width="1024.000000pt" height="1024.000000pt" viewBox="0 0 1024.000000 1024.000000"
 preserveAspectRatio="xMidYMid meet">

<g transform="translate(0.000000,1024.000000) scale(0.100000,-0.100000)"
fill="#000000" stroke="none">
<path d="M4886 9174 c-403 -73 -795 -394 -1129 -924 -90 -143 -254 -470 -320
-640 -219 -563 -340 -1230 -308 -1700 17 -254 53 -426 132 -630 90 -231 201
-401 369 -568 335 -333 748 -526 1243 -583 130 -15 428 -7 569 15 426 67 809
261 1088 552 84 87 210 246 210 264 0 5 -37 -4 -82 -21 -46 -17 -99 -37 -118
-44 -21 -7 -76 -53 -135 -112 -219 -217 -460 -356 -775 -446 -180 -52 -435
-82 -610 -72 -508 29 -961 223 -1285 550 -235 237 -374 520 -441 900 -21 119
-29 477 -15 631 109 1144 695 2249 1373 2590 179 90 389 124 575 94 356 -57
715 -340 1023 -805 47 -71 107 -168 133 -215 l48 -85 72 -21 c40 -11 80 -25
91 -29 16 -7 17 -5 11 16 -4 13 -44 92 -88 174 -297 557 -674 926 -1087 1067
-169 57 -372 73 -544 42z"/>
<path d="M5825 7825 c-752 -133 -1269 -813 -1196 -1572 28 -290 146 -559 346
-793 291 -341 714 -526 1155 -506 148 7 232 21 360 61 180 57 338 137 489 248
35 26 71 47 81 47 10 0 53 -31 96 -68 78 -67 79 -69 85 -123 3 -31 14 -70 24
-87 10 -17 84 -91 164 -164 80 -73 202 -185 271 -249 467 -432 455 -423 585
-423 67 0 89 4 137 27 149 72 217 265 144 408 -15 30 -38 63 -50 74 -42 36
-387 340 -600 527 -264 232 -263 231 -341 236 l-62 4 -89 83 -89 82 57 119
c104 220 143 390 141 629 -1 180 -19 296 -73 456 -86 258 -232 476 -435 647
-199 167 -405 269 -666 327 -104 23 -426 29 -534 10z m465 -135 c277 -46 510
-169 723 -378 467 -462 526 -1167 142 -1701 -188 -261 -481 -443 -824 -511
-100 -20 -134 -22 -275 -17 -214 7 -354 39 -531 121 -148 68 -343 220 -463
361 -141 164 -245 382 -289 603 -23 117 -23 337 0 454 68 341 244 625 511 824
292 218 649 305 1006 244z m1073 -2265 c26 -24 47 -47 47 -52 0 -5 -20 -28
-44 -52 l-45 -44 -73 69 c-40 38 -75 70 -77 71 -2 1 16 24 39 52 l43 50 31
-26 c17 -14 52 -45 79 -68z m652 -454 c229 -200 423 -377 432 -395 42 -79 1
-200 -80 -237 -54 -24 -108 -24 -155 0 -20 11 -113 90 -207 177 -419 387 -533
492 -582 534 -73 62 -72 80 13 173 96 104 113 118 140 115 14 -2 194 -152 439
-367z"/>
<path d="M5910 7509 c-470 -61 -862 -441 -945 -918 -30 -171 -16 -382 37 -536
134 -395 438 -664 851 -755 191 -41 447 -13 660 73 243 97 462 296 574 522
134 267 157 567 64 845 -59 175 -139 307 -260 433 -249 258 -615 383 -981 336z
m405 -148 c223 -55 439 -198 574 -380 64 -86 133 -230 163 -341 20 -74 23
-107 22 -250 -1 -190 -16 -267 -84 -409 -55 -114 -111 -190 -214 -289 -186
-179 -389 -266 -647 -279 -412 -21 -783 204 -960 581 -65 139 -84 235 -83 416
1 183 18 261 90 409 82 172 194 302 345 402 128 85 284 144 429 163 75 9 286
-4 365 -23z"/>
<path d="M6700 6940 c-26 -26 -26 -26 10 -126 54 -153 74 -272 73 -439 0 -125
-3 -163 -22 -230 -13 -44 -25 -90 -28 -102 -19 -85 83 -125 131 -51 20 32 54
177 63 273 5 44 5 130 1 190 -11 174 -89 457 -136 493 -24 18 -69 15 -92 -8z"/>
<path d="M1972 3959 c-60 -30 -75 -54 -120 -187 -22 -64 -88 -256 -147 -427
-291 -845 -364 -1074 -415 -1292 -19 -83 -20 -95 -6 -120 20 -38 133 -147 173
-167 45 -23 83 -20 309 19 265 46 344 63 370 80 13 8 34 47 52 92 l29 78 64
12 c108 20 126 18 145 -19 68 -133 137 -155 393 -128 159 17 802 69 1051 84
881 57 1675 65 2480 26 342 -16 826 -54 1174 -91 332 -35 345 -35 396 -9 24
12 57 32 72 43 26 19 33 19 160 8 282 -24 785 -62 833 -62 90 -2 162 41 196
116 16 35 19 68 19 268 0 211 -2 232 -21 278 -24 56 -70 89 -151 110 l-48 11
0 130 c0 127 -7 161 -42 205 -6 8 -9 150 -9 365 2 374 0 394 -46 455 -50 65
-21 63 -887 63 -558 0 -793 -3 -817 -11 -70 -24 -128 -105 -129 -180 0 -41
-20 -74 -41 -67 -10 3 -14 25 -14 84 -1 119 -41 182 -135 213 -21 6 -127 12
-260 13 -242 3 -257 1 -317 -55 -21 -19 -30 -19 -205 -13 -116 5 -200 4 -229
-3 -34 -8 -58 -7 -100 4 -40 11 -116 15 -290 15 -227 0 -237 -1 -279 -23 -51
-27 -90 -90 -90 -144 0 -56 -15 -73 -63 -73 -62 0 -67 7 -65 81 2 96 -32 151
-122 192 -41 18 -70 21 -310 25 -252 4 -268 4 -305 -16 -76 -39 -105 -89 -105
-184 0 -77 -1 -78 -96 -78 l-84 0 0 63 c0 66 -26 138 -58 164 -9 8 -35 23 -57
33 -36 18 -64 20 -316 20 -296 0 -321 -3 -366 -52 -31 -33 -53 -90 -53 -137 0
-22 -4 -51 -10 -65 -8 -23 -15 -26 -58 -26 -26 0 -55 6 -64 13 -9 6 -29 53
-44 102 -36 115 -47 133 -109 161 -50 24 -53 24 -420 24 -356 0 -372 -1 -413
-21z m756 -141 c10 -12 36 -126 152 -668 27 -124 67 -308 90 -410 86 -391 104
-476 104 -510 1 -32 -1 -35 -39 -41 -117 -20 -458 -50 -467 -41 -5 5 -22 76
-37 156 -15 80 -30 148 -33 152 -6 5 -406 -39 -464 -51 -17 -4 -29 -32 -70
-162 -42 -132 -54 -160 -75 -170 -33 -16 -431 -78 -452 -70 -15 5 -14 12 4 79
22 80 357 1090 489 1473 46 132 90 248 98 258 14 16 44 17 352 17 258 0 340
-3 348 -12z m1010 -21 c7 -8 8 -66 2 -182 -5 -94 -12 -224 -15 -290 -3 -66
-10 -192 -15 -280 -6 -88 -11 -216 -12 -284 l-3 -123 125 3 c69 2 163 3 210 4
l85 0 3 -192 c2 -175 1 -193 -15 -201 -10 -5 -88 -12 -173 -16 -169 -7 -262
-12 -534 -30 -129 -8 -182 -9 -193 -1 -13 10 -14 44 -4 276 12 274 27 683 36
969 9 258 14 332 26 346 16 19 461 20 477 1z m1026 -13 c3 -8 -5 -257 -19
-552 -14 -295 -25 -547 -25 -559 l0 -23 199 0 c128 0 202 -4 206 -10 9 -15 6
-343 -3 -352 -7 -7 -100 -11 -487 -23 -99 -3 -224 -8 -277 -11 -117 -6 -121
-2 -113 103 3 37 10 246 16 463 6 217 14 521 18 676 4 154 11 286 15 292 5 9
74 12 236 12 198 0 229 -2 234 -16z m2024 -16 c9 -9 12 -77 12 -244 0 -175 3
-235 13 -241 6 -4 62 -9 122 -11 61 -2 116 -9 123 -14 17 -14 17 -289 0 -306
-8 -8 -53 -12 -135 -12 l-123 0 0 -344 c0 -263 -3 -346 -12 -354 -17 -13 -346
2 -362 18 -16 16 -21 1487 -5 1506 15 19 349 20 367 2z m-1142 -59 c11 -9 14
-52 14 -200 l0 -189 105 0 105 0 0 181 c0 105 4 188 10 200 10 18 23 19 185
19 162 0 175 -1 185 -19 15 -30 14 -1253 -2 -1269 -17 -17 -949 -17 -966 0 -9
9 -12 167 -12 648 0 350 3 640 8 645 11 12 352 -3 368 -16z m3072 9 c17 -17
17 -639 0 -656 -9 -9 -147 -12 -560 -12 l-548 0 0 -55 0 -55 573 0 c432 0 576
-3 585 -12 17 -17 17 -249 0 -266 -9 -9 -88 -12 -295 -12 l-283 0 0 -80 0 -80
348 -1 c191 -1 374 -4 407 -8 l60 -6 0 -185 0 -185 -60 2 c-33 1 -242 14 -465
28 -223 13 -486 29 -585 35 -678 40 -808 49 -816 57 -5 5 -8 68 -7 139 l3 129
358 3 357 2 0 75 0 75 -258 0 c-187 0 -261 3 -270 12 -14 14 -18 663 -4 672 4
2 248 6 542 7 294 1 541 4 548 7 7 2 12 22 12 46 l0 43 -362 6 c-199 4 -448 7
-554 7 -181 0 -194 1 -204 19 -14 28 -13 234 2 249 17 17 1459 17 1476 0z"/>
<path d="M2305 3358 c-2 -7 -41 -128 -85 -268 -45 -140 -85 -268 -91 -284 l-9
-29 72 7 c39 3 111 9 160 13 64 4 88 10 88 19 0 17 -88 466 -101 517 -10 37
-26 48 -34 25z"/>
<path d="M5660 2890 l0 -140 104 0 104 0 4 62 c3 33 2 96 0 140 l-5 78 -103 0
-104 0 0 -140z"/>
</g>
</svg>
