<?xml version="1.0" encoding="UTF-8"?>
<svg version="1.1" xmlns="http://www.w3.org/2000/svg" width="1536" height="1024">
<path d="M0 0 C506.88 0 1013.76 0 1536 0 C1536 337.92 1536 675.84 1536 1024 C1029.12 1024 522.24 1024 0 1024 C0 686.08 0 348.16 0 0 Z " fill="#FDFDFD" transform="translate(0,0)"/>
<path d="M0 0 C0.6796582 0.26200195 1.35931641 0.52400391 2.05957031 0.79394531 C13.36873768 5.29740782 23.32501117 11.8383752 32.0625 20.3125 C32.0625 20.9725 32.0625 21.6325 32.0625 22.3125 C32.7225 22.3125 33.3825 22.3125 34.0625 22.3125 C48.76256065 38.96443592 57.23408619 58.40817259 57.25 80.6875 C57.26224609 81.58210938 57.27449219 82.47671875 57.28710938 83.3984375 C57.30640123 92.24696898 55.26739198 100.11470037 52.625 108.5 C52.42068359 109.17224609 52.21636719 109.84449219 52.00585938 110.53710938 C51.00866405 113.7275131 49.91249105 116.59448961 48.33984375 119.55078125 C46.91750656 122.1209064 46.91750656 122.1209064 47.05859375 124.3984375 C48.54687845 127.23602312 50.68468426 128.88502628 53.125 130.9375 C54.80518809 132.35611603 56.46035098 133.80630546 58.0625 135.3125 C58.0625 135.9725 58.0625 136.6325 58.0625 137.3125 C58.95195313 137.70888672 58.95195313 137.70888672 59.859375 138.11328125 C62.14279054 139.35620425 63.53676723 140.61651646 65.3125 142.5 C68.37761045 145.65621777 71.57322009 148.56380559 74.90234375 151.4375 C78.14485064 154.25197252 81.3249641 157.13445165 84.51171875 160.01171875 C86.13577337 161.4766011 87.76303785 162.93793831 89.39453125 164.39453125 C91.96127114 166.68884767 94.51243999 168.99965487 97.0625 171.3125 C97.66884277 171.85632324 98.27518555 172.40014648 98.89990234 172.96044922 C100.92099674 174.77690097 102.92988736 176.60616791 104.9375 178.4375 C105.90175903 179.29831177 105.90175903 179.29831177 106.88549805 180.17651367 C113.25194497 186.02728258 116.71672199 191.5854802 117.2265625 200.3984375 C116.8653695 206.81391311 114.712406 212.32415174 110.625 217.25 C109.779375 217.930625 108.93375 218.61125 108.0625 219.3125 C107.32 220.01375 106.5775 220.715 105.8125 221.4375 C99.45191197 225.77426456 93.2933573 226.9697609 85.6796875 225.92578125 C73.52932534 223.07860683 63.90356735 209.65896617 56.50390625 200.32421875 C52.90572531 195.88550274 49.1149516 191.61667007 45.31469727 187.3503418 C44.77772217 186.739729 44.24074707 186.12911621 43.6875 185.5 C42.96433594 184.68595703 42.96433594 184.68595703 42.2265625 183.85546875 C41.0625 182.3125 41.0625 182.3125 40.0625 179.3125 C39.4025 179.3125 38.7425 179.3125 38.0625 179.3125 C36.69037699 177.78054728 35.3909554 176.18328919 34.125 174.5625 C30.13478547 169.55198632 25.94151507 164.82960299 21.51782227 160.19824219 C18.0625 156.52360302 18.0625 156.52360302 18.0625 154.3125 C17.11890625 154.84359375 16.1753125 155.3746875 15.203125 155.921875 C-5.17525913 167.21058177 -28.52379292 172.54130174 -51.625 166.625 C-76.00207627 159.46704947 -95.11693434 145.10680432 -107.70458984 123.02661133 C-112.2174005 114.73053283 -115.07838684 106.57486734 -116.9375 97.3125 C-117.12699219 96.37277344 -117.31648438 95.43304688 -117.51171875 94.46484375 C-120.30446018 73.78830861 -116.18987432 55.24789444 -105.9375 37.3125 C-105.11958984 35.81783203 -105.11958984 35.81783203 -104.28515625 34.29296875 C-93.42969062 15.7404737 -73.89015837 2.88077776 -53.5625 -3.1875 C-36.69404999 -7.35662337 -16.19643922 -6.29629258 0 0 Z " fill="#F9F9F9" transform="translate(513.9375,385.6875)"/>
<path d="M0 0 C15.20305876 -0.06941174 30.40609919 -0.12296578 45.60928059 -0.15543652 C52.66820478 -0.1709132 59.72702878 -0.19201788 66.78588867 -0.22631836 C73.59395997 -0.25938446 80.40192695 -0.27683734 87.21007347 -0.28463173 C89.81169463 -0.29018864 92.41330989 -0.30103941 95.01488686 -0.31719017 C98.64978129 -0.33886492 102.28424114 -0.34197105 105.91918945 -0.34057617 C107.00244003 -0.351362 108.08569061 -0.36214783 109.20176697 -0.3732605 C110.19034698 -0.36913651 111.178927 -0.36501251 112.19746399 -0.36076355 C113.48751327 -0.36491162 113.48751327 -0.36491162 114.80362415 -0.36914349 C117.49048018 0.08243469 118.37120907 0.85287985 120 3 C120.39440918 5.18734741 120.39440918 5.18734741 120.41992188 7.75927734 C120.43583374 8.72392914 120.45174561 9.68858093 120.46813965 10.6824646 C120.46834106 11.72311066 120.46854248 12.76375671 120.46875 13.8359375 C120.47636353 14.90744049 120.48397705 15.97894348 120.49182129 17.08291626 C120.50263236 19.35082671 120.50547133 21.61878699 120.50097656 23.88671875 C120.5000056 27.3550139 120.54159 30.8210877 120.5859375 34.2890625 C120.5911454 36.49218288 120.59383268 38.69531096 120.59375 40.8984375 C120.61014526 41.9350351 120.62654053 42.97163269 120.64343262 44.03964233 C120.6341272 45.01059845 120.62482178 45.98155457 120.61523438 46.98193359 C120.61728882 47.83226166 120.61934326 48.68258972 120.62145996 49.5586853 C119.66936988 53.29883213 118.08433309 54.72150015 115 57 C112.07581457 57.68663755 109.2545554 57.63368517 106.26245117 57.56762695 C105.39365326 57.56835709 104.52485535 57.56908722 103.62973022 57.56983948 C100.76683449 57.56636453 97.90557915 57.52750834 95.04296875 57.48828125 C93.05472197 57.47895278 91.06646368 57.47183683 89.07820129 57.46684265 C83.85169601 57.44777559 78.62588835 57.39867691 73.3996582 57.34332275 C68.06406084 57.29212422 62.72835047 57.26932729 57.39257812 57.24414062 C46.92803 57.19055796 36.46418222 57.10262408 26 57 C26 63.6 26 70.2 26 77 C57.02 77 88.04 77 120 77 C120 83.6 120 90.2 120 97 C104.82 97 89.64 97 74 97 C74 104.59 74 112.18 74 120 C96.77 120 119.54 120 143 120 C143 126.6 143 133.2 143 140 C90.2 140 37.4 140 -17 140 C-17 133.4 -17 126.8 -17 120 C4.45 120 25.9 120 48 120 C48 112.08 48 104.16 48 96 C43.17955078 96.05220703 43.17955078 96.05220703 38.26171875 96.10546875 C35.15406178 96.12885559 32.04641455 96.14707717 28.9387207 96.16479492 C26.77656679 96.17989444 24.61444357 96.20037571 22.45239258 96.22631836 C19.347091 96.26265017 16.24219386 96.27971462 13.13671875 96.29296875 C12.16788254 96.30845261 11.19904633 96.32393646 10.20085144 96.33988953 C8.84979057 96.34022942 8.84979057 96.34022942 7.47143555 96.34057617 C6.67867722 96.34723801 5.88591888 96.35389984 5.06913757 96.36076355 C3 96 3 96 1.24479675 94.78289795 C-0.38821918 92.44396129 -0.38038164 90.97535528 -0.38818359 88.13305664 C-0.40236832 86.65120628 -0.40236832 86.65120628 -0.4168396 85.13941956 C-0.41076691 84.07376266 -0.40469421 83.00810577 -0.3984375 81.91015625 C-0.40130768 80.81408554 -0.40417786 79.71801483 -0.40713501 78.58872986 C-0.40917752 76.26951583 -0.40363464 73.95028464 -0.39111328 71.63110352 C-0.37507833 68.07984868 -0.39094849 64.5297347 -0.41015625 60.97851562 C-0.40817355 58.72655998 -0.40432933 56.47460506 -0.3984375 54.22265625 C-0.40451019 53.15902359 -0.41058289 52.09539093 -0.4168396 50.99952698 C-0.40738312 50.00847458 -0.39792664 49.01742218 -0.38818359 47.99633789 C-0.38579681 47.12602432 -0.38341003 46.25571075 -0.38095093 45.35902405 C0.0856036 42.46990298 0.99556991 41.10926538 3 39 C6.80438596 37.73187135 10.3642604 37.86872664 14.3269043 37.88647461 C15.17590302 37.88632858 16.02490173 37.88618256 16.89962769 37.8860321 C19.70785063 37.88672917 22.51600738 37.89451194 25.32421875 37.90234375 C27.27049219 37.90420866 29.21676609 37.90563222 31.16304016 37.90663147 C36.28733617 37.91045088 41.41160386 37.92027627 46.53588867 37.93133545 C51.76415626 37.94156194 56.99242842 37.94613175 62.22070312 37.95117188 C72.48048319 37.96189903 82.74023481 37.9794912 93 38 C93 32.06 93 26.12 93 20 C62.31 20 31.62 20 0 20 C0 13.4 0 6.8 0 0 Z " fill="#040404" transform="translate(1032,405)"/>
<path d="M0 0 C0.75378937 -0.00012085 1.50757874 -0.0002417 2.28421021 -0.00036621 C13.47457932 0.02521552 23.7119137 0.71472723 34.375 4.375 C35.38433594 4.66375 36.39367187 4.9525 37.43359375 5.25 C47.41117484 8.34983102 56.04603303 14.31575615 61.375 23.375 C63.2792505 29.08775151 63.54358637 36.03852209 61.5390625 41.76171875 C55.97686208 51.26225571 45.80985217 57.99928814 35.3671875 60.95703125 C33.66475997 61.38068282 31.9589166 61.79083367 30.25 62.1875 C28.96802734 62.51137695 28.96802734 62.51137695 27.66015625 62.84179688 C22.77152299 64.02453073 18.40135476 64.61337726 13.375 64.375 C13.375 68.005 13.375 71.635 13.375 75.375 C35.815 75.375 58.255 75.375 81.375 75.375 C81.375 81.645 81.375 87.915 81.375 94.375 C27.585 94.375 -26.205 94.375 -81.625 94.375 C-81.625 88.105 -81.625 81.835 -81.625 75.375 C-59.185 75.375 -36.745 75.375 -13.625 75.375 C-13.625 71.745 -13.625 68.115 -13.625 64.375 C-15.35363281 64.42333984 -15.35363281 64.42333984 -17.1171875 64.47265625 C-30.1497341 64.45260618 -45.41741391 59.7513622 -55.19921875 51.09765625 C-60.78298299 45.07280471 -63.0866747 40.15655125 -62.8671875 31.92578125 C-62.12917397 24.15283235 -58.40942679 18.50187205 -52.625 13.375 C-44.95134176 7.85850484 -36.78922645 4.53550478 -27.625 2.375 C-26.87702148 2.19839844 -26.12904297 2.02179688 -25.35839844 1.83984375 C-16.93879875 0.06662982 -8.56202685 -0.02105618 0 0 Z " fill="#030303" transform="translate(752.625,382.625)"/>
<path d="M0 0 C12.29623457 8.75269818 21.11637481 21.12514059 24.18359375 36.171875 C26.36867104 53.20196193 21.46531128 68.42741064 11.5625 82.125 C10.82 83.15625 10.0775 84.1875 9.3125 85.25 C-0.36493971 95.36732334 -14.4444573 102.05403102 -28.44384766 102.51953125 C-46.00357794 102.79453681 -58.79880847 97.95850876 -71.86328125 85.8828125 C-81.2475387 76.26197713 -87.63000366 63.52291346 -87.71630859 49.9362793 C-87.70680176 49.23543213 -87.69729492 48.53458496 -87.6875 47.8125 C-87.67928223 47.0697583 -87.67106445 46.3270166 -87.66259766 45.56176758 C-87.35103052 30.12914376 -82.34621917 17.32755673 -71.4375 6.125 C-50.94693128 -12.04369125 -23.19773915 -14.68428316 0 0 Z " fill="#FCFCFC" transform="translate(515.4375,420.875)"/>
<path d="M0 0 C8.58 0 17.16 0 26 0 C26 15.18 26 30.36 26 46 C38.87 46 51.74 46 65 46 C65 30.82 65 15.64 65 0 C73.58 0 82.16 0 91 0 C91.09031439 15.2989096 91.16399013 30.59769889 91.20724869 45.89680767 C91.22786882 53.00055679 91.25597862 60.10412846 91.30175781 67.20776367 C91.34590377 74.06123858 91.36912796 80.91452886 91.37950897 87.76813698 C91.38690836 90.38486447 91.40135732 93.00158171 91.42292023 95.61823082 C91.45189294 99.27915765 91.4559584 102.93931904 91.45410156 106.6003418 C91.46848267 107.68575256 91.48286377 108.77116333 91.49768066 109.88946533 C91.47388275 114.21630465 91.36585068 117.2430058 89.4664917 121.17303467 C86.08105517 123.68067545 83.13878623 123.69467769 79.08203125 123.63110352 C78.28807953 123.63825882 77.49412781 123.64541412 76.67611694 123.65278625 C74.05432415 123.66968125 71.43423946 123.65026737 68.8125 123.62890625 C66.98933775 123.62973488 65.16617558 123.63219404 63.34301758 123.63621521 C59.52304584 123.63907375 55.70366026 123.62436682 51.88378906 123.59692383 C46.98742469 123.56284075 42.09210851 123.56885861 37.19569397 123.5875864 C33.43126694 123.59815532 29.6670838 123.5892196 25.90267944 123.57420158 C24.09736861 123.5690185 22.29203233 123.56950311 20.48672485 123.57574654 C17.96324914 123.58119754 15.44127352 123.56082892 12.91796875 123.53344727 C12.17187347 123.53997314 11.4257782 123.54649902 10.65707397 123.55322266 C7.18315593 123.48912944 5.33887089 123.26586425 2.56762695 121.09165955 C0.198899 117.93110376 -0.12442647 116.21432711 -0.12025452 112.31771851 C-0.12162918 111.33051315 -0.12300385 110.3433078 -0.12442017 109.32618713 C-0.12082489 108.23934128 -0.11722961 107.15249542 -0.11352539 106.03271484 C-0.11367142 104.89125504 -0.11381744 103.74979523 -0.1139679 102.57374573 C-0.11326906 98.78612391 -0.10547798 94.99855077 -0.09765625 91.2109375 C-0.09579197 88.59062731 -0.09436811 85.97031677 -0.09336853 83.3500061 C-0.09025752 77.14872839 -0.08204722 70.94746826 -0.07201904 64.7461983 C-0.06085078 57.68703837 -0.05534565 50.62787761 -0.05032361 43.56871104 C-0.03986442 29.04579699 -0.02152179 14.52290199 0 0 Z " fill="#040404" transform="translate(847,405)"/>
<path d="M0 0 C0.98226562 0.36544922 0.98226562 0.36544922 1.984375 0.73828125 C6.51534651 2.47335566 10.58732939 4.6338681 14.75 7.125 C14.17655063 9.99224686 13.8885485 10.9864515 11.75 13.125 C6.24095456 12.61663234 0.81226478 10.17788418 -4.39257812 8.38476562 C-25.2807229 1.28103369 -46.69268373 2.17384337 -66.625 11.875 C-86.61420593 22.20167745 -99.07579793 39.01466388 -106.33984375 59.87109375 C-112.3061536 81.20129164 -107.50234246 104.38716241 -96.9375 123.375 C-86.78373966 139.95657 -70.85983901 150.60232525 -52.5 156.5625 C-29.66381473 162.03937447 -6.25127051 158.03356695 13.75 146.125 C16.95525458 143.98654725 19.8750339 141.68734842 22.75 139.125 C23.42417969 138.54363281 24.09835937 137.96226562 24.79296875 137.36328125 C38.32414866 124.87900114 46.15415893 105.78950212 47.140625 87.57421875 C47.82869037 64.39319956 42.29421896 45.90340334 26.75 28.125 C24.11642088 25.62383547 21.40028577 23.2166632 18.55981445 20.95263672 C15.72470241 18.5781324 14.79444601 17.55924262 14.41015625 13.8046875 C14.52230469 12.92039062 14.63445312 12.03609375 14.75 11.125 C16.85546875 10.32421875 16.85546875 10.32421875 19.75 10.125 C22.11077819 11.65639564 23.99551361 13.08148185 26.0625 14.9375 C26.61228516 15.40220703 27.16207031 15.86691406 27.72851562 16.34570312 C29.11921159 17.54982125 30.44091877 18.83262156 31.75 20.125 C31.75 20.785 31.75 21.445 31.75 22.125 C32.41 22.125 33.07 22.125 33.75 22.125 C48.45006065 38.77693592 56.92158619 58.22067259 56.9375 80.5 C56.94974609 81.39460938 56.96199219 82.28921875 56.97460938 83.2109375 C56.99390123 92.05946898 54.95489198 99.92720037 52.3125 108.3125 C52.10818359 108.98474609 51.90386719 109.65699219 51.69335938 110.34960938 C50.69616405 113.5400131 49.59999105 116.40698961 48.02734375 119.36328125 C46.60500656 121.9334064 46.60500656 121.9334064 46.74609375 124.2109375 C48.23437845 127.04852312 50.37218426 128.69752628 52.8125 130.75 C54.49268809 132.16861603 56.14785098 133.61880546 57.75 135.125 C57.75 135.785 57.75 136.445 57.75 137.125 C58.63945313 137.52138672 58.63945313 137.52138672 59.546875 137.92578125 C61.83029054 139.16870425 63.22426723 140.42901646 65 142.3125 C68.06511045 145.46871777 71.26072009 148.37630559 74.58984375 151.25 C77.83235064 154.06447252 81.0124641 156.94695165 84.19921875 159.82421875 C85.82327337 161.2891011 87.45053785 162.75043831 89.08203125 164.20703125 C91.64877114 166.50134767 94.19993999 168.81215487 96.75 171.125 C97.35634277 171.66882324 97.96268555 172.21264648 98.58740234 172.77294922 C100.60849674 174.58940097 102.61738736 176.41866791 104.625 178.25 C105.58925903 179.11081177 105.58925903 179.11081177 106.57299805 179.98901367 C112.93944497 185.83978258 116.40422199 191.3979802 116.9140625 200.2109375 C116.5528695 206.62641311 114.399906 212.13665174 110.3125 217.0625 C109.466875 217.743125 108.62125 218.42375 107.75 219.125 C107.0075 219.82625 106.265 220.5275 105.5 221.25 C99.13941197 225.58676456 92.9808573 226.7822609 85.3671875 225.73828125 C73.21682534 222.89110683 63.59106735 209.47146617 56.19140625 200.13671875 C52.59322531 195.69800274 48.8024516 191.42917007 45.00219727 187.1628418 C44.46522217 186.552229 43.92824707 185.94161621 43.375 185.3125 C42.65183594 184.49845703 42.65183594 184.49845703 41.9140625 183.66796875 C40.75 182.125 40.75 182.125 39.75 179.125 C39.09 179.125 38.43 179.125 37.75 179.125 C36.37787699 177.59304728 35.0784554 175.99578919 33.8125 174.375 C29.82228547 169.36448632 25.62901507 164.64210299 21.20532227 160.01074219 C17.75 156.33610302 17.75 156.33610302 17.75 154.125 C16.80640625 154.65609375 15.8628125 155.1871875 14.890625 155.734375 C-5.48775913 167.02308177 -28.83629292 172.35380174 -51.9375 166.4375 C-76.31457627 159.27954947 -95.42943434 144.91930432 -108.01708984 122.83911133 C-112.5299005 114.54303283 -115.39088684 106.38736734 -117.25 97.125 C-117.43949219 96.18527344 -117.62898438 95.24554688 -117.82421875 94.27734375 C-120.61696018 73.60080861 -116.50237432 55.06039444 -106.25 37.125 C-105.43208984 35.63033203 -105.43208984 35.63033203 -104.59765625 34.10546875 C-93.74219062 15.5529737 -74.20265837 2.69327776 -53.875 -3.375 C-36.82065749 -7.59006765 -16.32772689 -6.41916682 0 0 Z " fill="#080808" transform="translate(514.25,385.875)"/>
<path d="M0 0 C0.81726563 0.75539063 1.63453125 1.51078125 2.4765625 2.2890625 C4.23415377 3.89760009 6.00625138 5.40175374 7.875 6.875 C20.23567753 17.58758719 29.44217857 32.34135007 37.6875 46.3125 C38.10531738 47.02035645 38.52313477 47.72821289 38.95361328 48.45751953 C55.31347628 76.44994384 65.93831694 106.6472914 72.6875 138.3125 C72.85862305 139.09383301 73.02974609 139.87516602 73.20605469 140.68017578 C75.94438984 153.21158791 76.87418837 165.24624717 76.87280273 178.04394531 C76.87499577 180.30813228 76.89323369 182.57183579 76.91210938 184.8359375 C76.94083548 192.51306843 76.71054268 199.84844678 74.6875 207.3125 C71.36569325 205.84152055 69.84633705 205.13544027 67.6875 202.3125 C66.94300293 197.92450018 67.11356267 193.62768046 67.33190918 189.20315552 C67.5106775 185.47314945 67.56489091 181.74131963 67.625 178.0078125 C67.63907898 177.26259842 67.65315796 176.51738434 67.66766357 175.74958801 C67.89953248 159.42760929 64.81517592 143.05870028 60.6875 127.3125 C60.3479126 126.00007324 60.3479126 126.00007324 60.00146484 124.66113281 C49.83019553 86.03045054 33.15511024 48.55400401 5.9375 18.90625 C4.6875 17.3125 4.6875 17.3125 4.6875 15.3125 C4.0275 15.3125 3.3675 15.3125 2.6875 15.3125 C0.97952458 13.68819229 -0.68058187 12.01320538 -2.3125 10.3125 C-19.59601769 -6.66634029 -41.23626309 -17.97180148 -65.75 -18.1875 C-94.53561739 -17.84220324 -117.60340364 -2.74215346 -137.3125 17.3125 C-141.20630727 21.46298541 -144.81115263 25.82855061 -148.3125 30.3125 C-148.72564453 30.84004883 -149.13878906 31.36759766 -149.56445312 31.91113281 C-185.15209467 78.01715019 -208.67346265 145.21261983 -203.08544922 203.68847656 C-202.50862359 207.99991752 -201.4846761 212.12953286 -200.3125 216.3125 C-199.96754593 217.68329131 -199.62385703 219.05440145 -199.28125 220.42578125 C-191.93319998 248.59064282 -173.39666406 275.16326931 -148.3125 290.3125 C-136.72936445 296.95195229 -125.24458311 302.81130238 -112.3125 306.3125 C-110.75789063 306.75142578 -110.75789063 306.75142578 -109.171875 307.19921875 C-70.5856564 317.13662429 -28.65772503 310.71505117 5.51367188 290.64111328 C17.45630888 283.34194093 28.5955612 273.58333945 37.3828125 262.67578125 C38.02863281 262.00095703 38.02863281 262.00095703 38.6875 261.3125 C39.3475 261.3125 40.0075 261.3125 40.6875 261.3125 C42.06982443 262.93876404 43.40687515 264.6050002 44.6875 266.3125 C43.19469517 271.60792253 39.74931182 274.74823173 35.9375 278.5 C35.2679126 279.16201416 34.5983252 279.82402832 33.90844727 280.50610352 C23.74024445 290.34672402 12.14244194 297.70434165 -0.3125 304.3125 C-1.25480469 304.82296875 -2.19710937 305.3334375 -3.16796875 305.859375 C-10.54515314 309.56290077 -18.27051891 312.07101273 -26.125 314.5625 C-27.70716309 315.07490234 -27.70716309 315.07490234 -29.32128906 315.59765625 C-43.68860997 320.00217234 -58.151032 320.72844546 -73.0625 320.6875 C-73.84964386 320.68662384 -74.63678772 320.68574768 -75.44778442 320.68484497 C-87.81675363 320.63957755 -99.39132395 319.83790762 -111.3125 316.3125 C-112.14136719 316.08175781 -112.97023438 315.85101562 -113.82421875 315.61328125 C-148.81683659 305.72747442 -178.33793423 284.00530087 -196.45556641 252.31298828 C-218.70991562 211.74320054 -215.42863115 164.49274405 -203.17626953 121.22998047 C-196.72368684 99.4356438 -187.95063983 78.3898868 -177.3125 58.3125 C-176.72339844 57.19230469 -176.13429688 56.07210937 -175.52734375 54.91796875 C-163.1793056 32.39787369 -146.13220952 7.60817175 -124.3125 -6.6875 C-123.32378906 -7.36941406 -122.33507812 -8.05132812 -121.31640625 -8.75390625 C-81.45037694 -35.7773045 -35.90038627 -32.26760909 0 0 Z " fill="#080808" transform="translate(520.3125,324.6875)"/>
<path d="M0 0 C15.42926255 -0.09261747 30.85848455 -0.16398942 46.2879591 -0.20724869 C53.45224156 -0.22786915 60.61634806 -0.25597959 67.78051758 -0.30175781 C74.02522487 -0.34164174 80.26980474 -0.36743658 86.51463586 -0.37635398 C89.82095057 -0.38156624 93.12681596 -0.39590611 96.4330349 -0.42292023 C100.12509288 -0.45189136 103.81639184 -0.45595846 107.50854492 -0.45410156 C108.60330643 -0.46848267 109.69806793 -0.48286377 110.82600403 -0.49768066 C115.34484077 -0.47303419 118.1963828 -0.45545982 122.17976379 1.8021698 C124.81692198 4.98638616 124.68183989 7.98950859 124.59375 11.94140625 C124.59379028 12.70549301 124.59383057 13.46957977 124.59387207 14.25682068 C124.58852184 15.86815643 124.57095984 17.47949194 124.54199219 19.09057617 C124.50007749 21.55793844 124.50092853 24.02257559 124.5078125 26.49023438 C124.49732148 28.05731064 124.48438383 29.62437285 124.46875 31.19140625 C124.46844788 32.29773155 124.46844788 32.29773155 124.46813965 33.42640686 C124.34989861 38.53587891 124.34989861 38.53587891 122.72171307 40.69557667 C119.62982653 43.03808601 115.66895749 42.38642474 111.9387207 42.34057617 C110.54817978 42.34123329 110.54817978 42.34123329 109.12954712 42.34190369 C106.06141188 42.33981148 102.99382118 42.3164599 99.92578125 42.29296875 C97.8001485 42.28737434 95.67451189 42.28310351 93.5488739 42.28010559 C87.9510126 42.26864468 82.35338437 42.23916665 76.75561523 42.20599365 C71.04479119 42.17531969 65.33392953 42.16160597 59.62304688 42.14648438 C48.41526211 42.11429826 37.20765043 42.06308675 26 42 C26 45.3 26 48.6 26 52 C60.32 52 94.64 52 130 52 C130 57.61 130 63.22 130 69 C113.78840776 69.09260917 97.57692465 69.16398505 81.36513233 69.20724869 C73.8376496 69.227871 66.31033427 69.25598505 58.78295898 69.30175781 C52.22182547 69.34163598 45.66081321 69.36743523 39.09956187 69.37635398 C35.62560211 69.38156716 32.1519892 69.39381246 28.67814064 69.42292023 C24.79943991 69.45515646 20.92107802 69.45595877 17.04223633 69.45410156 C15.89137039 69.46848267 14.74050446 69.48286377 13.55476379 69.49768066 C5.8126117 69.45746743 5.8126117 69.45746743 1.7868042 67.19110107 C-0.76301475 64.06433932 -0.70101339 61.17676375 -0.62890625 57.3125 C-0.63131821 56.57298096 -0.63373016 55.83346191 -0.63621521 55.0715332 C-0.63523782 53.51150132 -0.62186956 51.95143429 -0.59692383 50.39160156 C-0.56260453 48.00726203 -0.57626742 45.62662873 -0.59570312 43.2421875 C-0.58880438 41.7239426 -0.57913172 40.20570724 -0.56640625 38.6875 C-0.57136612 37.97698486 -0.57632599 37.26646973 -0.58143616 36.53442383 C-0.50007475 33.1050856 -0.2434567 31.30813995 1.91040039 28.58203125 C6.02751483 25.464973 9.68692705 25.8654636 14.67236328 25.88647461 C15.56998383 25.88632858 16.46760437 25.88618256 17.39242554 25.8860321 C20.36841218 25.88673047 23.34433675 25.89451933 26.3203125 25.90234375 C28.38011643 25.9042082 30.43992081 25.90563198 32.49972534 25.90663147 C37.92817402 25.91045452 43.35659605 25.92028301 48.78503418 25.93133545 C54.32152954 25.94155412 59.85802919 25.94613007 65.39453125 25.95117188 C76.26303256 25.96190545 87.13151406 25.97897935 98 26 C98 23.03 98 20.06 98 17 C65.66 17 33.32 17 0 17 C0 11.39 0 5.78 0 0 Z " fill="#050505" transform="translate(691,487)"/>
<path d="M0 0 C1.53527344 -0.01836914 1.53527344 -0.01836914 3.1015625 -0.03710938 C4.07867188 -0.03904297 5.05578125 -0.04097656 6.0625 -0.04296875 C7.41021484 -0.04913208 7.41021484 -0.04913208 8.78515625 -0.05541992 C11 0.1875 11 0.1875 13 2.1875 C13.24050903 4.28823853 13.24050903 4.28823853 13.22705078 6.91259766 C13.22689972 7.89346344 13.22674866 8.87432922 13.22659302 9.88491821 C13.21627045 10.94641083 13.20594788 12.00790344 13.1953125 13.1015625 C13.1924826 14.18633881 13.18965271 15.27111511 13.18673706 16.38876343 C13.17551578 19.86345313 13.15040762 23.33788782 13.125 26.8125 C13.11497272 29.16405879 13.10584643 31.5156216 13.09765625 33.8671875 C13.07726919 39.64080299 13.03812378 45.41386506 13 51.1875 C21.58 51.1875 30.16 51.1875 39 51.1875 C39 58.1175 39 65.0475 39 72.1875 C30.42 72.1875 21.84 72.1875 13 72.1875 C13 96.2775 13 120.3675 13 145.1875 C4.42 145.1875 -4.16 145.1875 -13 145.1875 C-13 97.6675 -13 50.1475 -13 1.1875 C-9.11308052 -0.75595974 -4.27485419 0.00269197 0 0 Z " fill="#050404" transform="translate(972,402.8125)"/>
<path d="M0 0 C16.53656966 -0.66630867 32.56970618 5.86720296 45.13671875 16.43359375 C57.11539455 28.03357597 65.67392299 43.92702677 66.24365234 60.79101562 C66.39300419 80.05336751 59.21635255 97.69855608 45.69921875 111.51171875 C41.53383862 115.53862215 36.82965238 118.47893981 31.76171875 121.24609375 C31.08625 121.643125 30.41078125 122.04015625 29.71484375 122.44921875 C16.51933785 129.75582119 -1.65484837 130.88986689 -16.15234375 127.14453125 C-24.41010707 124.59555138 -31.6027581 120.81764508 -38.23828125 115.24609375 C-39.0890625 114.56675781 -39.93984375 113.88742187 -40.81640625 113.1875 C-53.81428503 102.27161678 -60.91505372 86.88688628 -63.23828125 70.24609375 C-64.69237536 52.15955334 -59.13496084 37.20743684 -48.48828125 22.87109375 C-37.96519155 10.54988387 -22.76827035 2.07267235 -6.6328125 0.4609375 C-4.42096838 0.32094737 -2.20989758 0.16794155 0 0 Z M-41.23828125 27.24609375 C-43.82410833 30.78041068 -46.06970539 34.44418848 -48.23828125 38.24609375 C-48.65207031 38.93832031 -49.06585938 39.63054687 -49.4921875 40.34375 C-55.96254252 51.97128836 -56.18524902 68.57752415 -52.61328125 81.18359375 C-47.08536351 96.66946783 -36.37592574 108.5638792 -21.78515625 116.0078125 C-9.18394078 121.73519295 5.26045029 122.76921241 18.47119141 118.39135742 C25.11033093 115.88519743 31.167459 112.62263748 36.76171875 108.24609375 C37.79296875 107.50359375 38.82421875 106.76109375 39.88671875 105.99609375 C51.70804747 94.68873585 57.48182358 79.1858382 58.01171875 63.05859375 C57.79042541 48.31241008 51.41429417 35.09151007 41.26171875 24.52734375 C27.488113 11.95892851 13.31135163 8.17008233 -4.85546875 8.83203125 C-18.8023091 9.6931849 -31.81019704 16.95909509 -41.23828125 27.24609375 Z " fill="#090909" transform="translate(482.23828125,402.75390625)"/>
<path d="M0 0 C2 0 2 0 4.29296875 2.1953125 C5.18628906 3.12085938 6.07960938 4.04640625 7 5 C14.23399845 11.72578032 21.61920149 18.28282392 29.1484375 24.67578125 C35.72680788 30.26938224 42.19543595 35.94486027 48.50854492 41.8371582 C51.45293606 44.58376792 54.43525427 47.26365299 57.5 49.875 C62.44099051 54.18012464 66.6922072 58.33025672 68 65 C67.99073844 70.22351908 67.49327605 74.92451127 64 79 C58.93242026 82.64865741 54.28884573 84.25737269 48 84 C38.56462102 81.39713683 33.2602925 73.19021072 27.38671875 65.890625 C25.00629518 63.00762428 22.53320218 60.24921167 20 57.5 C15.98716057 53.13580597 12.21263649 48.63813523 8.48828125 44.02734375 C5.50937955 40.40309128 2.45075078 36.85457851 -0.625 33.3125 C-1.18179443 32.66853271 -1.73858887 32.02456543 -2.31225586 31.36108398 C-4.64543885 28.67033835 -6.9909232 26.00972096 -9.421875 23.40625 C-10.06640625 22.7153125 -10.7109375 22.024375 -11.375 21.3125 C-11.91898438 20.75175781 -12.46296875 20.19101562 -13.0234375 19.61328125 C-14 18 -14 18 -13.86328125 15.96484375 C-12.84404 13.64503223 -11.8287371 12.76329054 -9.8125 11.25 C-6.27119834 8.40821472 -3.81512849 5.27473593 -1.26171875 1.5390625 C-0.84535156 1.03117188 -0.42898438 0.52328125 0 0 Z " fill="#FBFBFB" transform="translate(554,519)"/>
<path d="M0 0 C1.44632813 -0.01160156 1.44632813 -0.01160156 2.921875 -0.0234375 C12.13386326 0.00125952 20.91870835 0.86042261 29.1875 5.1875 C30.17878906 5.69152344 31.17007813 6.19554687 32.19140625 6.71484375 C34.625 8.25 34.625 8.25 36.625 11.25 C37.16883914 15.44533047 37.1918367 17.46374265 34.6875 20.9375 C21.5195567 30.88064086 3.38613927 30.54072595 -12.375 29.25 C-19.63083106 28.15478022 -27.13687036 26.24374041 -32.375 20.8125 C-33.95465886 18.45579213 -34.43826231 16.96244403 -35.0625 14.125 C-34.10053768 10.10224847 -32.64308365 8.78443222 -29.375 6.25 C-20.01903375 1.02006916 -10.56620666 -0.08408122 0 0 Z " fill="#F9F9F9" transform="translate(751.375,400.75)"/>
<path d="M0 0 C12.87 0 25.74 0 39 0 C39 12.54 39 25.08 39 38 C26.13 38 13.26 38 0 38 C0 25.46 0 12.92 0 0 Z " fill="#FAFAFA" transform="translate(873,470)"/>
<path d="M0 0 C11.55 0 23.1 0 35 0 C35 0.33 35 0.66 35 1 C33.56950317 1.029729 33.56950317 1.029729 32.11010742 1.06005859 C28.57077701 1.13615014 25.03185583 1.22486161 21.49291992 1.31738281 C19.96142661 1.35565798 18.42984385 1.39051349 16.89819336 1.421875 C14.6961267 1.46755807 12.49467504 1.52554537 10.29296875 1.5859375 C9.60849167 1.59748871 8.92401459 1.60903992 8.21879578 1.62094116 C4.61539163 1.73273744 3.0840817 1.94394553 0 4 C0 2.68 0 1.36 0 0 Z " fill="#0A0909" transform="translate(1032,405)"/>
</svg>
